<svg version="1.1" viewBox="0.0 0.0 769.8425196850394 312.03937007874015" fill="none" stroke="none" stroke-linecap="square" stroke-miterlimit="10" xmlns:xlink="http://www.w3.org/1999/xlink" xmlns="http://www.w3.org/2000/svg"><clipPath id="p.0"><path d="m0 0l769.8425 0l0 312.03937l-769.8425 0l0 -312.03937z" clip-rule="nonzero"/></clipPath><g clip-path="url(#p.0)"><path fill="#000000" fill-opacity="0.0" d="m0 0l769.8425 0l0 312.03937l-769.8425 0z" fill-rule="evenodd"/><path fill="#c9daf8" d="m3.8897638 95.10317l0 0c0 -1.0178909 0.825161 -1.8430481 1.8430486 -1.8430481l161.0383 0c0.4888153 0 0.9575958 0.19417572 1.3032379 0.5398178c0.3456421 0.34563446 0.5398102 0.8144226 0.5398102 1.3032303l0 75.21154c0 1.0178833 -0.82514954 1.8430481 -1.8430481 1.8430481l-161.0383 0c-1.0178876 0 -1.8430486 -0.8251648 -1.8430486 -1.8430481z" fill-rule="evenodd"/><path stroke="#1c4587" stroke-width="3.0" stroke-linejoin="round" stroke-linecap="butt" d="m3.8897638 95.10317l0 0c0 -1.0178909 0.825161 -1.8430481 1.8430486 -1.8430481l161.0383 0c0.4888153 0 0.9575958 0.19417572 1.3032379 0.5398178c0.3456421 0.34563446 0.5398102 0.8144226 0.5398102 1.3032303l0 75.21154c0 1.0178833 -0.82514954 1.8430481 -1.8430481 1.8430481l-161.0383 0c-1.0178876 0 -1.8430486 -0.8251648 -1.8430486 -1.8430481z" fill-rule="evenodd"/><path fill="#1c4587" d="m26.045588 139.62894l0 -13.34375l2.46875 0l0 11.375l5.578123 0l-0.0625 1.96875l-7.984373 0zm9.584394 0l0 -10.015625l2.390625 0l0 10.015625l-2.390625 0zm0 -11.46875l0 -2.046875l2.390625 0l0 2.046875l-2.390625 0zm8.068863 11.65625q-2.203125 0 -3.546875 -0.765625l0.25 -1.796875q0.609375 0.328125 1.53125 0.59375q0.9375 0.265625 1.703125 0.265625q0.78125 0 1.21875 -0.296875q0.453125 -0.296875 0.453125 -0.875q0 -0.515625 -0.421875 -0.8125q-0.40625 -0.3125 -1.5625 -0.75q-0.40625 -0.15625 -0.53125 -0.203125q-1.375 -0.53125 -1.984375 -1.1875q-0.609375 -0.65625 -0.609375 -1.796875q0 -1.359375 0.984375 -2.078125q0.984375 -0.734375 2.75 -0.734375q1.921875 0 3.359375 0.71875l-0.578125 1.640625q-1.4375 -0.65625 -2.734375 -0.65625q-0.71875 0 -1.125 0.234375q-0.40625 0.234375 -0.40625 0.734375q0 0.46875 0.390625 0.734375q0.390625 0.25 1.53125 0.671875q0.046875 0 0.234375 0.078125q0.203125 0.078125 0.3125 0.125q1.375 0.5 2.015625 1.203125q0.65625 0.6875 0.65625 1.8125q0 1.5 -1.015625 2.328125q-1.015625 0.8125 -2.875 0.8125zm9.76973 -0.046875q-1.015625 0 -1.703125 -0.234375q-0.671875 -0.25 -1.0625 -0.765625q-0.375 -0.53125 -0.53125 -1.234375q-0.15625 -0.703125 -0.15625 -1.734375l0 -4.734375l-1.640625 0l0.09375 -1.296875l1.703125 -0.15625l0.765625 -2.703125l1.46875 -0.015625l0 2.71875l2.484375 0l0 1.453125l-2.484375 0l0 4.765625q0 1.140625 0.328125 1.625q0.328125 0.484375 1.203125 0.484375q0.515625 0 1.109375 -0.09375l0.0625 1.71875q-0.015625 0 -0.21875 0.046875q-0.203125 0.03125 -0.390625 0.0625q-0.1875 0.03125 -0.484375 0.0625q-0.28125 0.03125 -0.546875 0.03125zm7.87352 0.046875q-2.421875 0 -3.765625 -1.390625q-1.34375 -1.390625 -1.34375 -3.828125q0 -2.390625 1.265625 -3.796875q1.265625 -1.421875 3.453125 -1.421875q2.078125 0 3.21875 1.296875q1.140625 1.28125 1.140625 3.421875q0 0.15625 -0.015625 0.5q0 0.34375 0 0.515625l-6.65625 0q0.03125 1.40625 0.765625 2.171875q0.734375 0.765625 2.03125 0.765625q1.625 0 3.140625 -0.859375l0.34375 1.703125q-1.5 0.921875 -3.578125 0.921875zm-2.65625 -6.203125l4.375 0q0 -1.21875 -0.5625 -1.875q-0.546875 -0.65625 -1.53125 -0.65625q-0.921875 0 -1.5625 0.640625q-0.625 0.625 -0.71875 1.890625zm8.570938 6.015625l0 -10.015625l2.0 0l0.3125 1.53125q0.984375 -1.578125 2.859375 -1.578125q0.390625 0 0.625 0.046875l-0.03125 1.984375q-0.359375 -0.046875 -0.75 -0.046875q-1.328125 0 -1.984375 0.703125q-0.640625 0.703125 -0.640625 1.953125l0 5.421875l-2.390625 0zm9.769379 0l-3.625 -13.34375l2.453125 0l2.59375 10.390625l3.046875 -10.328125l2.359375 0l2.875 10.359375l2.640625 -10.421875l2.46875 0l-3.734375 13.34375l-2.5625 0l-2.859375 -9.78125l-3.109375 9.78125l-2.546875 0zm18.687485 0.1875q-1.40625 0 -2.265625 -0.765625q-0.859375 -0.765625 -0.859375 -2.21875q0 -1.5625 1.015625 -2.3125q1.03125 -0.75 3.09375 -0.953125q0.28125 -0.03125 0.609375 -0.0625q0.328125 -0.046875 0.734375 -0.078125q0.40625 -0.03125 0.640625 -0.0625l0 -0.53125q0 -0.90625 -0.421875 -1.3125q-0.40625 -0.421875 -1.265625 -0.421875q-1.21875 0 -3.015625 0.671875q-0.015625 -0.015625 -0.3125 -0.8125q-0.28125 -0.8125 -0.296875 -0.828125q1.765625 -0.75 3.828125 -0.75q2.03125 0 2.9375 0.875q0.921875 0.875 0.921875 2.84375l0 6.53125l-1.765625 0q0 -0.03125 -0.203125 -0.609375q-0.1875 -0.578125 -0.1875 -0.609375q-0.75 0.734375 -1.46875 1.078125q-0.703125 0.328125 -1.71875 0.328125zm0.640625 -1.6875q0.828125 0 1.4375 -0.390625q0.625 -0.40625 0.890625 -0.96875l0 -1.9375q-0.03125 0 -0.484375 0.046875q-0.453125 0.03125 -0.484375 0.03125q-1.453125 0.125 -2.125 0.546875q-0.671875 0.421875 -0.671875 1.34375q0 0.640625 0.375 0.984375q0.375 0.34375 1.0625 0.34375zm11.106171 1.640625q-1.015625 0 -1.703125 -0.234375q-0.671875 -0.25 -1.0625 -0.765625q-0.375 -0.53125 -0.53125 -1.234375q-0.15625 -0.703125 -0.15625 -1.734375l0 -4.734375l-1.640625 0l0.09375 -1.296875l1.703125 -0.15625l0.765625 -2.703125l1.46875 -0.015625l0 2.71875l2.484375 0l0 1.453125l-2.484375 0l0 4.765625q0 1.140625 0.328125 1.625q0.328125 0.484375 1.203125 0.484375q0.515625 0 1.109375 -0.09375l0.0625 1.71875q-0.015625 0 -0.21875 0.046875q-0.203125 0.03125 -0.390625 0.0625q-0.1875 0.03125 -0.484375 0.0625q-0.28125 0.03125 -0.546875 0.03125zm7.62352 0.046875q-2.296875 0 -3.578125 -1.359375q-1.28125 -1.375 -1.28125 -3.90625q0 -2.46875 1.34375 -3.8125q1.34375 -1.359375 3.546875 -1.359375q1.75 0 2.96875 0.75l-0.5625 1.703125q-1.25 -0.640625 -2.3125 -0.640625q-1.203125 0 -1.90625 0.859375q-0.703125 0.859375 -0.703125 2.515625q0 1.6875 0.6875 2.5625q0.6875 0.875 1.953125 0.875q1.3125 0 2.515625 -0.78125l0.234375 1.8125q-0.625 0.421875 -1.3125 0.59375q-0.671875 0.1875 -1.59375 0.1875zm4.807373 -0.1875l0 -13.703125l2.375 -0.15625l0 2.890625q0 0.203125 -0.03125 1.15625q-0.015625 0.953125 -0.015625 0.96875q1.1875 -1.40625 3.203125 -1.40625q1.671875 0 2.5937576 0.96875q0.9375 0.953125 0.9375 2.9375l0 6.34375l-2.3906326 0l0 -6.078125q0 -1.234375 -0.390625 -1.796875q-0.390625 -0.578125 -1.328125 -0.578125q-0.8125 0 -1.4375 0.40625q-0.609375 0.40625 -0.921875 1.046875q-0.21875 0.828125 -0.21875 2.1875l0 4.8125l-2.375 0zm16.039207 0.1875q-2.421875 0 -3.765625 -1.390625q-1.34375 -1.390625 -1.34375 -3.828125q0 -2.390625 1.265625 -3.796875q1.265625 -1.421875 3.453125 -1.421875q2.078125 0 3.21875 1.296875q1.140625 1.28125 1.140625 3.421875q0 0.15625 -0.015625 0.5q0 0.34375 0 0.515625l-6.65625 0q0.03125 1.40625 0.765625 2.171875q0.734375 0.765625 2.03125 0.765625q1.625 0 3.140625 -0.859375l0.34375 1.703125q-1.5 0.921875 -3.578125 0.921875zm-2.65625 -6.203125l4.375 0q0 -1.21875 -0.5625 -1.875q-0.546875 -0.65625 -1.53125 -0.65625q-0.921875 0 -1.5625 0.640625q-0.625 0.625 -0.71875 1.890625zm8.570938 6.015625l0 -10.015625l2.0 0l0.3125 1.53125q0.984375 -1.578125 2.859375 -1.578125q0.390625 0 0.625 0.046875l-0.03125 1.984375q-0.359375 -0.046875 -0.75 -0.046875q-1.328125 0 -1.984375 0.703125q-0.640625 0.703125 -0.640625 1.953125l0 5.421875l-2.390625 0z" fill-rule="nonzero"/><path fill="#d9ead3" d="m232.94751 60.311954l0 0c0 -1.9480057 1.5791626 -3.527176 3.527176 -3.527176l189.07164 0c0.9354553 0 1.8326111 0.37160873 2.4940796 1.0330849c0.6614685 0.6614723 1.033081 1.5586243 1.033081 2.494091l0 143.93777c0 1.9480133 -1.5791626 3.527176 -3.5271606 3.527176l-189.07164 0c-1.9480133 0 -3.527176 -1.5791626 -3.527176 -3.527176z" fill-rule="evenodd"/><path stroke="#274e13" stroke-width="3.0" stroke-linejoin="round" stroke-linecap="butt" d="m232.94751 60.311954l0 0c0 -1.9480057 1.5791626 -3.527176 3.527176 -3.527176l189.07164 0c0.9354553 0 1.8326111 0.37160873 2.4940796 1.0330849c0.6614685 0.6614723 1.033081 1.5586243 1.033081 2.494091l0 143.93777c0 1.9480133 -1.5791626 3.527176 -3.5271606 3.527176l-189.07164 0c-1.9480133 0 -3.527176 -1.5791626 -3.527176 -3.527176z" fill-rule="evenodd"/><path fill="#274e13" d="m293.0065 128.38834q-2.921875 0 -4.640625 -1.828125q-1.71875 -1.84375 -1.71875 -5.09375q0 -3.078125 1.78125 -4.9375q1.796875 -1.859375 4.703125 -1.859375q2.34375 0 3.953125 1.078125l-0.765625 1.875q-1.5625 -0.96875 -3.140625 -0.96875q-1.828125 0 -2.90625 1.328125q-1.0625 1.328125 -1.0625 3.5625q0 2.3125 1.03125 3.578125q1.03125 1.265625 2.9375 1.265625q1.6875 0 3.328125 -0.84375l0.328125 1.9375q-1.53125 0.90625 -3.828125 0.90625zm10.163971 -1.8125q1.203125 0 1.8125 -0.875q0.609375 -0.890625 0.609375 -2.53125q0 -1.671875 -0.609375 -2.546875q-0.609375 -0.875 -1.828125 -0.875q-1.21875 0 -1.84375 0.875q-0.609375 0.875 -0.609375 2.546875q0 1.640625 0.625 2.53125q0.625 0.875 1.84375 0.875zm-0.0625 1.8125q-2.234375 0 -3.515625 -1.4375q-1.265625 -1.4375 -1.265625 -3.78125q0 -2.421875 1.265625 -3.8125q1.28125 -1.40625 3.609375 -1.40625q2.25 0 3.515625 1.421875q1.265625 1.421875 1.265625 3.796875q0 2.390625 -1.28125 3.8125q-1.28125 1.40625 -3.59375 1.40625zm6.8349304 -0.1875l0 -10.015625l1.921875 0l0.25 1.265625q1.53125 -1.5 3.40625 -1.5q1.75 0 2.609375 1.0q0.875 1.0 0.875 2.921875l0 6.328125l-2.390625 0l0 -6.046875q-0.015625 -1.203125 -0.40625 -1.796875q-0.375 -0.609375 -1.359375 -0.609375q-0.78125 0 -1.421875 0.40625q-0.640625 0.390625 -0.9375 0.984375q-0.171875 0.71875 -0.171875 2.1875l0 4.875l-2.375 0zm15.407684 0.140625q-1.015625 0 -1.703125 -0.234375q-0.671875 -0.25 -1.0625 -0.765625q-0.375 -0.53125 -0.53125 -1.234375q-0.15625 -0.703125 -0.15625 -1.734375l0 -4.734375l-1.640625 0l0.09375 -1.296875l1.703125 -0.15625l0.765625 -2.703125l1.46875 -0.015625l0 2.71875l2.484375 0l0 1.453125l-2.484375 0l0 4.765625q0 1.140625 0.328125 1.625q0.328125 0.484375 1.203125 0.484375q0.515625 0 1.109375 -0.09375l0.0625 1.71875q-0.015625 0 -0.21875 0.046875q-0.203125 0.03125 -0.390625 0.0625q-0.1875 0.03125 -0.484375 0.0625q-0.28125 0.03125 -0.546875 0.03125zm3.330536 -0.140625l0 -10.015625l2.0 0l0.3125 1.53125q0.984375 -1.578125 2.859375 -1.578125q0.390625 0 0.625 0.046875l-0.03125 1.984375q-0.359375 -0.046875 -0.75 -0.046875q-1.328125 0 -1.984375 0.703125q-0.640625 0.703125 -0.640625 1.953125l0 5.421875l-2.390625 0zm11.537628 -1.625q1.203125 0 1.8125 -0.875q0.609375 -0.890625 0.609375 -2.53125q0 -1.671875 -0.609375 -2.546875q-0.609375 -0.875 -1.828125 -0.875q-1.21875 0 -1.84375 0.875q-0.609375 0.875 -0.609375 2.546875q0 1.640625 0.625 2.53125q0.625 0.875 1.84375 0.875zm-0.0625 1.8125q-2.234375 0 -3.515625 -1.4375q-1.265625 -1.4375 -1.265625 -3.78125q0 -2.421875 1.265625 -3.8125q1.28125 -1.40625 3.609375 -1.40625q2.25 0 3.515625 1.421875q1.265625 1.421875 1.265625 3.796875q0 2.390625 -1.28125 3.8125q-1.28125 1.40625 -3.59375 1.40625zm10.33493 -0.046875q-1.03125 0 -1.71875 -0.234375q-0.671875 -0.25 -1.0625 -0.78125q-0.390625 -0.53125 -0.546875 -1.25q-0.15625 -0.734375 -0.15625 -1.8125l0 -9.765625l2.390625 -0.15625l0 9.875q0 1.34375 0.3125 1.828125q0.328125 0.46875 1.25 0.46875q0.453125 0 1.15625 -0.09375l0.0625 1.703125q-0.015625 0 -0.234375 0.046875q-0.203125 0.046875 -0.40625 0.078125q-0.1875 0.03125 -0.5 0.0625q-0.296875 0.03125 -0.546875 0.03125zm6.376648 0q-1.03125 0 -1.71875 -0.234375q-0.671875 -0.25 -1.0625 -0.78125q-0.390625 -0.53125 -0.546875 -1.25q-0.15625 -0.734375 -0.15625 -1.8125l0 -9.765625l2.390625 -0.15625l0 9.875q0 1.34375 0.3125 1.828125q0.328125 0.46875 1.25 0.46875q0.453125 0 1.15625 -0.09375l0.0625 1.703125q-0.015625 0 -0.234375 0.046875q-0.203125 0.046875 -0.40625 0.078125q-0.1875 0.03125 -0.5 0.0625q-0.296875 0.03125 -0.546875 0.03125zm7.4469604 0.046875q-2.421875 0 -3.765625 -1.390625q-1.34375 -1.390625 -1.34375 -3.828125q0 -2.390625 1.265625 -3.796875q1.265625 -1.421875 3.453125 -1.421875q2.078125 0 3.21875 1.296875q1.140625 1.28125 1.140625 3.421875q0 0.15625 -0.015625 0.5q0 0.34375 0 0.515625l-6.65625 0q0.03125 1.40625 0.765625 2.171875q0.734375 0.765625 2.03125 0.765625q1.625 0 3.140625 -0.859375l0.34375 1.703125q-1.5 0.921875 -3.578125 0.921875zm-2.65625 -6.203125l4.375 0q0 -1.21875 -0.5625 -1.875q-0.546875 -0.65625 -1.53125 -0.65625q-0.921875 0 -1.5625 0.640625q-0.625 0.625 -0.71875 1.890625zm8.570953 6.015625l0 -10.015625l2.0 0l0.3125 1.53125q0.984375 -1.578125 2.859375 -1.578125q0.390625 0 0.625 0.046875l-0.03125 1.984375q-0.359375 -0.046875 -0.75 -0.046875q-1.328125 0 -1.984375 0.703125q-0.640625 0.703125 -0.640625 1.953125l0 5.421875l-2.390625 0z" fill-rule="nonzero"/><path fill="#274e13" d="m312.0014 154.35709l0 -4.234375q0 -0.625 0.0625 -1.28125q-0.953125 1.5625 -2.859375 1.5625q-1.953125 0 -3.140625 -1.453125q-1.171875 -1.46875 -1.171875 -3.8125q0 -2.3125 1.109375 -3.75q1.125 -1.4375 3.140625 -1.4375q1.984375 0 2.96875 1.515625l0.1875 -1.28125l2.09375 0l0 14.0625l-2.390625 0.109375zm-2.34375 -5.765625q1.171875 0 1.78125 -0.78125q0.625 -0.78125 0.640625 -2.484375q0 -1.859375 -0.609375 -2.703125q-0.609375 -0.859375 -1.828125 -0.859375q-1.109375 0 -1.75 0.859375q-0.625 0.859375 -0.625 2.546875q0 1.671875 0.640625 2.546875q0.640625 0.875 1.75 0.875zm14.375122 0.828125q-1.1875 0.96875 -3.140625 0.96875q-1.9375 0 -3.125 -0.96875q-1.1875 -0.984375 -1.1875 -2.859375l0 -6.375l2.390625 0l0 6.28125q0 1.125 0.46875 1.625q0.46875 0.5 1.484375 0.5q1.015625 0 1.46875 -0.5q0.453125 -0.5 0.453125 -1.625l0 -6.28125l2.390625 0l0 6.375q0 1.875 -1.203125 2.859375zm8.016205 0.96875q-2.421875 0 -3.765625 -1.390625q-1.34375 -1.390625 -1.34375 -3.828125q0 -2.390625 1.265625 -3.796875q1.265625 -1.421875 3.453125 -1.421875q2.078125 0 3.21875 1.296875q1.140625 1.28125 1.140625 3.421875q0 0.15625 -0.015625 0.5q0 0.34375 0 0.515625l-6.65625 0q0.03125 1.40625 0.765625 2.171875q0.734375 0.765625 2.03125 0.765625q1.625 0 3.140625 -0.859375l0.34375 1.703125q-1.5 0.921875 -3.578125 0.921875zm-2.65625 -6.203125l4.375 0q0 -1.21875 -0.5625 -1.875q-0.546875 -0.65625 -1.53125 -0.65625q-0.921875 0 -1.5625 0.640625q-0.625 0.625 -0.71875 1.890625zm15.774078 5.234375q-1.1875 0.96875 -3.140625 0.96875q-1.9375 0 -3.125 -0.96875q-1.1875 -0.984375 -1.1875 -2.859375l0 -6.375l2.390625 0l0 6.28125q0 1.125 0.46875 1.625q0.46875 0.5 1.484375 0.5q1.015625 0 1.46875 -0.5q0.453125 -0.5 0.453125 -1.625l0 -6.28125l2.390625 0l0 6.375q0 1.875 -1.203125 2.859375zm8.016205 0.96875q-2.421875 0 -3.765625 -1.390625q-1.34375 -1.390625 -1.34375 -3.828125q0 -2.390625 1.265625 -3.796875q1.265625 -1.421875 3.453125 -1.421875q2.078125 0 3.21875 1.296875q1.140625 1.28125 1.140625 3.421875q0 0.15625 -0.015625 0.5q0 0.34375 0 0.515625l-6.65625 0q0.03125 1.40625 0.765625 2.171875q0.734375 0.765625 2.03125 0.765625q1.625 0 3.140625 -0.859375l0.34375 1.703125q-1.5 0.921875 -3.578125 0.921875zm-2.65625 -6.203125l4.375 0q0 -1.21875 -0.5625 -1.875q-0.546875 -0.65625 -1.53125 -0.65625q-0.921875 0 -1.5625 0.640625q-0.625 0.625 -0.71875 1.890625z" fill-rule="nonzero"/><path fill="#000000" fill-opacity="0.0" d="m168.61417 132.70894l64.346466 -0.4409485" fill-rule="evenodd"/><path stroke="#1c4587" stroke-width="2.0" stroke-linejoin="round" stroke-linecap="butt" d="m168.61417 132.70894l52.346756 -0.35871887" fill-rule="evenodd"/><path fill="#1c4587" stroke="#1c4587" stroke-width="2.0" stroke-linecap="butt" d="m220.98355 135.65361l9.053345 -3.3655853l-9.098618 -3.2411957z" fill-rule="evenodd"/><path fill="#c9daf8" d="m670.7769 116.835l0 0c0 -0.665184 0.5392456 -1.204422 1.2044067 -1.204422l91.82739 0c0.31939697 0 0.62579346 0.12689972 0.85162354 0.35276794c0.22589111 0.22587585 0.3527832 0.53221893 0.3527832 0.85165405l0 49.150215c0 0.6651764 -0.5392456 1.204422 -1.2044067 1.204422l-91.82739 0c-0.66516113 0 -1.2044067 -0.5392456 -1.2044067 -1.204422z" fill-rule="evenodd"/><path stroke="#1c4587" stroke-width="3.0" stroke-linejoin="round" stroke-linecap="butt" d="m670.7769 116.835l0 0c0 -0.665184 0.5392456 -1.204422 1.2044067 -1.204422l91.82739 0c0.31939697 0 0.62579346 0.12689972 0.85162354 0.35276794c0.22589111 0.22587585 0.3527832 0.53221893 0.3527832 0.85165405l0 49.150215c0 0.6651764 -0.5392456 1.204422 -1.2044067 1.204422l-91.82739 0c-0.66516113 0 -1.2044067 -0.5392456 -1.2044067 -1.204422z" fill-rule="evenodd"/><path fill="#1c4587" d="m688.6395 148.51761q-2.421875 0 -4.328125 -1.109375l0.59375 -1.96875q0.859375 0.484375 1.859375 0.78125q1.015625 0.28125 1.96875 0.28125q1.171875 0 1.765625 -0.5q0.609375 -0.515625 0.609375 -1.46875q0 -1.25 -1.671875 -1.734375q-0.125 -0.03125 -0.671875 -0.1875q-0.546875 -0.171875 -1.03125 -0.3125q-0.46875 -0.15625 -0.671875 -0.234375q-2.6875 -0.953125 -2.6875 -3.53125q0 -1.8125 1.28125 -2.796875q1.296875 -0.984375 3.421875 -0.984375q2.421875 0 4.171875 0.984375l-0.75 1.8125q-1.78125 -0.8125 -3.3125 -0.8125q-1.109375 0 -1.671875 0.390625q-0.5625 0.390625 -0.59375 1.296875q0 1.109375 1.109375 1.4375q0.21875 0.09375 1.0625 0.375q0.859375 0.265625 1.125 0.34375q1.828125 0.59375 2.609375 1.5q0.796875 0.890625 0.796875 2.484375q0 1.890625 -1.359375 2.921875q-1.34375 1.03125 -3.625 1.03125zm10.846802 -0.046875q-1.015625 0 -1.703125 -0.234375q-0.671875 -0.25 -1.0625 -0.765625q-0.375 -0.53125 -0.53125 -1.234375q-0.15625 -0.703125 -0.15625 -1.734375l0 -4.734375l-1.640625 0l0.09375 -1.296875l1.703125 -0.15625l0.765625 -2.703125l1.46875 -0.015625l0 2.71875l2.484375 0l0 1.453125l-2.484375 0l0 4.765625q0 1.140625 0.328125 1.625q0.328125 0.484375 1.203125 0.484375q0.515625 0 1.109375 -0.09375l0.0625 1.71875q-0.015625 0 -0.21875 0.046875q-0.203125 0.03125 -0.390625 0.0625q-0.1875 0.03125 -0.484375 0.0625q-0.28125 0.03125 -0.546875 0.03125zm7.60791 -1.765625q1.203125 0 1.8125 -0.875q0.609375 -0.890625 0.609375 -2.53125q0 -1.671875 -0.609375 -2.546875q-0.609375 -0.875 -1.828125 -0.875q-1.21875 0 -1.84375 0.875q-0.609375 0.875 -0.609375 2.546875q0 1.640625 0.625 2.53125q0.625 0.875 1.84375 0.875zm-0.0625 1.8125q-2.234375 0 -3.515625 -1.4375q-1.265625 -1.4375 -1.265625 -3.78125q0 -2.421875 1.265625 -3.8125q1.28125 -1.40625 3.609375 -1.40625q2.25 0 3.515625 1.421875q1.265625 1.421875 1.265625 3.796875q0 2.390625 -1.28125 3.8125q-1.28125 1.40625 -3.59375 1.40625zm6.834961 -0.1875l0 -10.015625l2.0 0l0.3125 1.53125q0.984375 -1.578125 2.859375 -1.578125q0.390625 0 0.625 0.046875l-0.03125 1.984375q-0.359375 -0.046875 -0.75 -0.046875q-1.328125 0 -1.984375 0.703125q-0.640625 0.703125 -0.640625 1.953125l0 5.421875l-2.390625 0zm9.846191 0.1875q-1.40625 0 -2.265625 -0.765625q-0.859375 -0.765625 -0.859375 -2.21875q0 -1.5625 1.015625 -2.3125q1.03125 -0.75 3.09375 -0.953125q0.28125 -0.03125 0.609375 -0.0625q0.328125 -0.046875 0.734375 -0.078125q0.40625 -0.03125 0.640625 -0.0625l0 -0.53125q0 -0.90625 -0.421875 -1.3125q-0.40625 -0.421875 -1.265625 -0.421875q-1.21875 0 -3.015625 0.671875q-0.015625 -0.015625 -0.3125 -0.8125q-0.28125 -0.8125 -0.296875 -0.828125q1.765625 -0.75 3.828125 -0.75q2.03125 0 2.9375 0.875q0.921875 0.875 0.921875 2.84375l0 6.53125l-1.765625 0q0 -0.03125 -0.203125 -0.609375q-0.1875 -0.578125 -0.1875 -0.609375q-0.75 0.734375 -1.46875 1.078125q-0.703125 0.328125 -1.71875 0.328125zm0.640625 -1.6875q0.828125 0 1.4375 -0.390625q0.625 -0.40625 0.890625 -0.96875l0 -1.9375q-0.03125 0 -0.484375 0.046875q-0.453125 0.03125 -0.484375 0.03125q-1.453125 0.125 -2.125 0.546875q-0.671875 0.421875 -0.671875 1.34375q0 0.640625 0.375 0.984375q0.375 0.34375 1.0625 0.34375zm9.121765 5.984375l-0.140625 -1.9375l1.21875 0q2.09375 0 2.9375 -0.5625q0.84375 -0.546875 0.84375 -2.046875q0 -0.609375 -0.0625 -1.328125q-0.234375 0.328125 -0.453125 0.546875q-0.21875 0.21875 -0.546875 0.4375q-0.3125 0.203125 -0.765625 0.3125q-0.453125 0.09375 -1.015625 0.09375q-1.984375 0 -3.265625 -1.421875q-1.28125 -1.4375 -1.28125 -3.703125q0 -1.203125 0.34375 -2.1875q0.359375 -0.984375 0.96875 -1.625q0.609375 -0.640625 1.40625 -0.96875q0.796875 -0.34375 1.703125 -0.34375q2.015625 0 3.0 1.453125l0.15625 -1.21875l2.140625 0l0 9.3125q0 0.734375 -0.078125 1.328125q-0.078125 0.609375 -0.265625 1.15625q-0.171875 0.546875 -0.46875 0.953125q-0.296875 0.421875 -0.75 0.75q-0.4375 0.34375 -1.046875 0.546875q-0.59375 0.21875 -1.40625 0.328125q-0.796875 0.125 -1.796875 0.125l-1.375 0zm2.390625 -6.15625q2.46875 0 2.5 -3.296875l0 -0.34375q-0.015625 -1.5 -0.625 -2.296875q-0.59375 -0.8125 -1.75 -0.828125q-1.3125 0 -2.0 0.90625q-0.671875 0.890625 -0.671875 2.40625q0 1.46875 0.671875 2.46875q0.6875 0.984375 1.875 0.984375zm11.776123 1.859375q-2.421875 0 -3.765625 -1.390625q-1.34375 -1.390625 -1.34375 -3.828125q0 -2.390625 1.265625 -3.796875q1.265625 -1.421875 3.453125 -1.421875q2.078125 0 3.21875 1.296875q1.140625 1.28125 1.140625 3.421875q0 0.15625 -0.015625 0.5q0 0.34375 0 0.515625l-6.65625 0q0.03125 1.40625 0.765625 2.171875q0.734375 0.765625 2.03125 0.765625q1.625 0 3.140625 -0.859375l0.34375 1.703125q-1.5 0.921875 -3.578125 0.921875zm-2.65625 -6.203125l4.375 0q0 -1.21875 -0.5625 -1.875q-0.546875 -0.65625 -1.53125 -0.65625q-0.921875 0 -1.5625 0.640625q-0.625 0.625 -0.71875 1.890625z" fill-rule="nonzero"/><path fill="#d9ead3" d="m493.38846 8.983711l0 0c0 -1.4144783 1.1466675 -2.561139 2.5611267 -2.561139l142.2793 0c0.67926025 0 1.3306885 0.26983356 1.8109741 0.7501402c0.48034668 0.48030663 0.7501831 1.1317425 0.7501831 1.8109989l0 104.51552c0 1.4144745 -1.1466675 2.5611343 -2.5611572 2.5611343l-142.2793 0c-1.4144592 0 -2.5611267 -1.1466599 -2.5611267 -2.5611343z" fill-rule="evenodd"/><path stroke="#274e13" stroke-width="3.0" stroke-linejoin="round" stroke-linecap="butt" stroke-dasharray="12.0,9.0" d="m493.38846 8.983711l0 0c0 -1.4144783 1.1466675 -2.561139 2.5611267 -2.561139l142.2793 0c0.67926025 0 1.3306885 0.26983356 1.8109741 0.7501402c0.48034668 0.48030663 0.7501831 1.1317425 0.7501831 1.8109989l0 104.51552c0 1.4144745 -1.1466675 2.5611343 -2.5611572 2.5611343l-142.2793 0c-1.4144592 0 -2.5611267 -1.1466599 -2.5611267 -2.5611343z" fill-rule="evenodd"/><path fill="#274e13" d="m506.32608 31.532705l-3.109375 -11.453125l2.109375 0l2.21875 8.90625l2.609375 -8.84375l2.0312805 0l2.46875 8.875l2.265625 -8.9375l2.109375 0l-3.203125 11.453125l-2.1875 0l-2.4531555 -8.390625l-2.671875 8.390625l-2.1875 0zm17.335968 -1.390625q1.046875 0 1.5625 -0.75q0.53125 -0.765625 0.53125 -2.1875q0 -1.421875 -0.53125 -2.171875q-0.515625 -0.75 -1.578125 -0.75q-1.03125 0 -1.5625 0.75q-0.53125 0.75 -0.53125 2.1875q0 1.40625 0.53125 2.171875q0.53125 0.75 1.578125 0.75zm-0.046875 1.5625q-1.90625 0 -3.0 -1.234375q-1.09375 -1.25 -1.09375 -3.265625q0 -2.078125 1.09375 -3.265625q1.09375 -1.203125 3.078125 -1.203125q1.921875 0 3.015625 1.21875q1.09375 1.21875 1.09375 3.25q0 2.0625 -1.109375 3.28125q-1.09375 1.21875 -3.078125 1.21875zm5.859375 -0.171875l0 -8.59375l1.71875 0l0.265625 1.3125q0.84375 -1.34375 2.453125 -1.34375q0.328125 0 0.546875 0.03125l-0.03125 1.703125q-0.3125 -0.046875 -0.65625 -0.046875q-1.125 0 -1.6875 0.609375q-0.5625 0.59375 -0.5625 1.671875l0 4.65625l-2.046875 0zm6.234375 0l0 -11.75l2.046875 -0.140625l0 5.28125l-0.046875 1.734375q0 -0.015625 0.15625 -0.15625q0.15625 -0.15625 0.171875 -0.171875q0.421875 -0.5 0.921875 -1.03125q0.515625 -0.546875 1.28125 -1.328125q0.765625 -0.78125 1.0 -1.03125l2.4375 0l-3.53125 3.65625l3.765625 4.9375l-2.484375 0l-2.828125 -3.90625l-0.84375 0.671875l0 3.234375l-2.046875 0zm12.8359375 0.171875q-2.078125 0 -3.234375 -1.1875q-1.140625 -1.203125 -1.140625 -3.3125q0 -2.046875 1.078125 -3.25q1.09375 -1.21875 2.96875 -1.21875q1.765625 0 2.75 1.109375q0.984375 1.109375 0.984375 2.9375q0 0.140625 -0.015625 0.4375q0 0.296875 0 0.4375l-5.703125 0q0.03125 1.203125 0.65625 1.859375q0.625 0.65625 1.734375 0.65625q1.40625 0 2.703125 -0.734375l0.28125 1.453125q-1.28125 0.8125 -3.0625 0.8125zm-2.28125 -5.34375l3.75 0q0 -1.046875 -0.484375 -1.609375q-0.46875 -0.5625 -1.3125 -0.5625q-0.78125 0 -1.328125 0.546875q-0.546875 0.546875 -0.625 1.625zm7.3515625 5.171875l0 -8.59375l1.71875 0l0.265625 1.3125q0.84375 -1.34375 2.453125 -1.34375q0.328125 0 0.546875 0.03125l-0.03125 1.703125q-0.3125 -0.046875 -0.65625 -0.046875q-1.125 0 -1.6875 0.609375q-0.5625 0.59375 -0.5625 1.671875l0 4.65625l-2.046875 0z" fill-rule="nonzero"/><path fill="#c9daf8" d="m516.2703 47.469513l0 0c0 -0.665184 0.5392456 -1.204422 1.2044067 -1.204422l99.229004 0c0.31939697 0 0.6257324 0.1268959 0.85162354 0.35276794c0.22589111 0.22587204 0.3527832 0.53221893 0.3527832 0.85165405l0 49.150215c0 0.665184 -0.5392456 1.204422 -1.2044067 1.204422l-99.229004 0c-0.66516113 0 -1.2044067 -0.539238 -1.2044067 -1.204422z" fill-rule="evenodd"/><path stroke="#1c4587" stroke-width="3.0" stroke-linejoin="round" stroke-linecap="butt" d="m516.2703 47.469513l0 0c0 -0.665184 0.5392456 -1.204422 1.2044067 -1.204422l99.229004 0c0.31939697 0 0.6257324 0.1268959 0.85162354 0.35276794c0.22589111 0.22587204 0.3527832 0.53221893 0.3527832 0.85165405l0 49.150215c0 0.665184 -0.5392456 1.204422 -1.2044067 1.204422l-99.229004 0c-0.66516113 0 -1.2044067 -0.539238 -1.2044067 -1.204422z" fill-rule="evenodd"/><path fill="#1c4587" d="m532.8904 78.964615l0 -13.34375l2.46875 0l0 5.453125l6.03125 0l0 -5.453125l2.46875 0l0 13.34375l-2.46875 0l0 -5.9375l-6.03125 0l0 5.9375l-2.46875 0zm16.26831 0.1875q-1.40625 0 -2.265625 -0.765625q-0.859375 -0.765625 -0.859375 -2.21875q0 -1.5625 1.015625 -2.3125q1.03125 -0.75 3.09375 -0.953125q0.28125 -0.03125 0.609375 -0.0625q0.328125 -0.046875 0.734375 -0.078125q0.40625 -0.03125 0.640625 -0.0625l0 -0.53125q0 -0.90625 -0.421875 -1.3125q-0.40625 -0.421875 -1.265625 -0.421875q-1.21875 0 -3.015625 0.671875q-0.015625 -0.015625 -0.3125 -0.8125q-0.28125 -0.8125 -0.296875 -0.828125q1.765625 -0.75 3.828125 -0.75q2.03125 0 2.9375 0.875q0.921875 0.875 0.921875 2.84375l0 6.53125l-1.765625 0q0 -0.03125 -0.203125 -0.609375q-0.1875 -0.578125 -0.1875 -0.609375q-0.75 0.734375 -1.46875 1.078125q-0.703125 0.328125 -1.71875 0.328125zm0.640625 -1.6875q0.828125 0 1.4375 -0.390625q0.625 -0.40625 0.890625 -0.96875l0 -1.9375q-0.03125 0 -0.484375 0.046875q-0.453125 0.03125 -0.484375 0.03125q-1.453125 0.125 -2.125 0.546875q-0.671875 0.421875 -0.671875 1.34375q0 0.640625 0.375 0.984375q0.375 0.34375 1.0625 0.34375zm7.121826 1.5l0 -10.015625l1.921875 0l0.25 1.265625q1.53125 -1.5 3.40625 -1.5q1.75 0 2.609375 1.0q0.875 1.0 0.875 2.921875l0 6.328125l-2.390625 0l0 -6.046875q-0.015625 -1.203125 -0.40625 -1.796875q-0.375 -0.609375 -1.359375 -0.609375q-0.78125 0 -1.421875 0.40625q-0.640625 0.390625 -0.9375 0.984375q-0.171875 0.71875 -0.171875 2.1875l0 4.875l-2.375 0zm15.142029 0.1875q-1.953125 0 -3.078125 -1.4375q-1.125 -1.4375 -1.125 -3.84375q0 -2.328125 1.109375 -3.734375q1.125 -1.421875 3.078125 -1.421875q2.140625 0 3.015625 1.5q-0.078125 -0.890625 -0.078125 -1.71875l0 -3.234375l2.375 -0.15625l0 13.859375l-2.0625 0l-0.265625 -1.359375q-0.15625 0.234375 -0.296875 0.421875q-0.125 0.171875 -0.375 0.40625q-0.25 0.234375 -0.546875 0.375q-0.296875 0.140625 -0.75 0.234375q-0.453125 0.109375 -1.0 0.109375zm0.5625 -1.8125q2.40625 0 2.4375 -3.265625q0 -1.84375 -0.625 -2.6875q-0.609375 -0.859375 -1.84375 -0.859375q-1.0625 0 -1.71875 0.859375q-0.640625 0.859375 -0.640625 2.546875q0 1.65625 0.640625 2.53125q0.65625 0.875 1.75 0.875zm10.687622 1.765625q-1.03125 0 -1.71875 -0.234375q-0.671875 -0.25 -1.0625 -0.78125q-0.390625 -0.53125 -0.546875 -1.25q-0.15625 -0.734375 -0.15625 -1.8125l0 -9.765625l2.390625 -0.15625l0 9.875q0 1.34375 0.3125 1.828125q0.328125 0.46875 1.25 0.46875q0.453125 0 1.15625 -0.09375l0.0625 1.703125q-0.015625 0 -0.234375 0.046875q-0.203125 0.046875 -0.40625 0.078125q-0.1875 0.03125 -0.5 0.0625q-0.296875 0.03125 -0.546875 0.03125zm7.4469604 0.046875q-2.421875 0 -3.765625 -1.390625q-1.34375 -1.390625 -1.34375 -3.828125q0 -2.390625 1.265625 -3.796875q1.265625 -1.421875 3.453125 -1.421875q2.078125 0 3.21875 1.296875q1.140625 1.28125 1.140625 3.421875q0 0.15625 -0.015625 0.5q0 0.34375 0 0.515625l-6.65625 0q0.03125 1.40625 0.765625 2.171875q0.734375 0.765625 2.03125 0.765625q1.625 0 3.140625 -0.859375l0.34375 1.703125q-1.5 0.921875 -3.578125 0.921875zm-2.65625 -6.203125l4.375 0q0 -1.21875 -0.5625 -1.875q-0.546875 -0.65625 -1.53125 -0.65625q-0.921875 0 -1.5625 0.640625q-0.625 0.625 -0.71875 1.890625zm8.570923 6.015625l0 -10.015625l2.0 0l0.3125 1.53125q0.984375 -1.578125 2.859375 -1.578125q0.390625 0 0.625 0.046875l-0.03125 1.984375q-0.359375 -0.046875 -0.75 -0.046875q-1.328125 0 -1.984375 0.703125q-0.640625 0.703125 -0.640625 1.953125l0 5.421875l-2.390625 0z" fill-rule="nonzero"/><path fill="#d9ead3" d="m493.38846 152.9837l0 0c0 -1.4144745 1.1466675 -2.5611267 2.5611267 -2.5611267l142.2793 0c0.67926025 0 1.3306885 0.26982117 1.8109741 0.7501373c0.48034668 0.4803009 0.7501831 1.1317444 0.7501831 1.8109894l0 104.51553c0 1.4144592 -1.1466675 2.5611267 -2.5611572 2.5611267l-142.2793 0c-1.4144592 0 -2.5611267 -1.1466675 -2.5611267 -2.5611267z" fill-rule="evenodd"/><path stroke="#274e13" stroke-width="3.0" stroke-linejoin="round" stroke-linecap="butt" stroke-dasharray="12.0,9.0" d="m493.38846 152.9837l0 0c0 -1.4144745 1.1466675 -2.5611267 2.5611267 -2.5611267l142.2793 0c0.67926025 0 1.3306885 0.26982117 1.8109741 0.7501373c0.48034668 0.4803009 0.7501831 1.1317444 0.7501831 1.8109894l0 104.51553c0 1.4144592 -1.1466675 2.5611267 -2.5611572 2.5611267l-142.2793 0c-1.4144592 0 -2.5611267 -1.1466675 -2.5611267 -2.5611267z" fill-rule="evenodd"/><path fill="#274e13" d="m506.32608 175.5327l-3.109375 -11.453125l2.109375 0l2.21875 8.90625l2.609375 -8.84375l2.0312805 0l2.46875 8.875l2.265625 -8.9375l2.109375 0l-3.203125 11.453125l-2.1875 0l-2.4531555 -8.390625l-2.671875 8.390625l-2.1875 0zm17.335968 -1.390625q1.046875 0 1.5625 -0.75q0.53125 -0.765625 0.53125 -2.1875q0 -1.421875 -0.53125 -2.171875q-0.515625 -0.75 -1.578125 -0.75q-1.03125 0 -1.5625 0.75q-0.53125 0.75 -0.53125 2.1875q0 1.40625 0.53125 2.171875q0.53125 0.75 1.578125 0.75zm-0.046875 1.5625q-1.90625 0 -3.0 -1.234375q-1.09375 -1.25 -1.09375 -3.265625q0 -2.078125 1.09375 -3.265625q1.09375 -1.203125 3.078125 -1.203125q1.921875 0 3.015625 1.21875q1.09375 1.21875 1.09375 3.25q0 2.0625 -1.109375 3.28125q-1.09375 1.21875 -3.078125 1.21875zm5.859375 -0.171875l0 -8.59375l1.71875 0l0.265625 1.3125q0.84375 -1.34375 2.453125 -1.34375q0.328125 0 0.546875 0.03125l-0.03125 1.703125q-0.3125 -0.046875 -0.65625 -0.046875q-1.125 0 -1.6875 0.609375q-0.5625 0.59375 -0.5625 1.671875l0 4.65625l-2.046875 0zm6.234375 0l0 -11.75l2.046875 -0.140625l0 5.28125l-0.046875 1.734375q0 -0.015625 0.15625 -0.15625q0.15625 -0.15625 0.171875 -0.171875q0.421875 -0.5 0.921875 -1.03125q0.515625 -0.546875 1.28125 -1.328125q0.765625 -0.78125 1.0 -1.03125l2.4375 0l-3.53125 3.65625l3.765625 4.9375l-2.484375 0l-2.828125 -3.90625l-0.84375 0.671875l0 3.234375l-2.046875 0zm12.8359375 0.171875q-2.078125 0 -3.234375 -1.1875q-1.140625 -1.203125 -1.140625 -3.3125q0 -2.046875 1.078125 -3.25q1.09375 -1.21875 2.96875 -1.21875q1.765625 0 2.75 1.109375q0.984375 1.109375 0.984375 2.9375q0 0.140625 -0.015625 0.4375q0 0.296875 0 0.4375l-5.703125 0q0.03125 1.203125 0.65625 1.859375q0.625 0.65625 1.734375 0.65625q1.40625 0 2.703125 -0.734375l0.28125 1.453125q-1.28125 0.8125 -3.0625 0.8125zm-2.28125 -5.34375l3.75 0q0 -1.046875 -0.484375 -1.609375q-0.46875 -0.5625 -1.3125 -0.5625q-0.78125 0 -1.328125 0.546875q-0.546875 0.546875 -0.625 1.625zm7.3515625 5.171875l0 -8.59375l1.71875 0l0.265625 1.3125q0.84375 -1.34375 2.453125 -1.34375q0.328125 0 0.546875 0.03125l-0.03125 1.703125q-0.3125 -0.046875 -0.65625 -0.046875q-1.125 0 -1.6875 0.609375q-0.5625 0.59375 -0.5625 1.671875l0 4.65625l-2.046875 0z" fill-rule="nonzero"/><path fill="#c9daf8" d="m516.2703 191.46951l0 0c0 -0.66519165 0.5392456 -1.204422 1.2044067 -1.204422l99.229004 0c0.31939697 0 0.6257324 0.12689209 0.85162354 0.35276794c0.22589111 0.22587585 0.3527832 0.53222656 0.3527832 0.85165405l0 49.150208c0 0.66519165 -0.5392456 1.204422 -1.2044067 1.204422l-99.229004 0c-0.66516113 0 -1.2044067 -0.53923035 -1.2044067 -1.204422z" fill-rule="evenodd"/><path stroke="#1c4587" stroke-width="3.0" stroke-linejoin="round" stroke-linecap="butt" d="m516.2703 191.46951l0 0c0 -0.66519165 0.5392456 -1.204422 1.2044067 -1.204422l99.229004 0c0.31939697 0 0.6257324 0.12689209 0.85162354 0.35276794c0.22589111 0.22587585 0.3527832 0.53222656 0.3527832 0.85165405l0 49.150208c0 0.66519165 -0.5392456 1.204422 -1.2044067 1.204422l-99.229004 0c-0.66516113 0 -1.2044067 -0.53923035 -1.2044067 -1.204422z" fill-rule="evenodd"/><path fill="#1c4587" d="m532.8904 222.96461l0 -13.34375l2.46875 0l0 5.453125l6.03125 0l0 -5.453125l2.46875 0l0 13.34375l-2.46875 0l0 -5.9375l-6.03125 0l0 5.9375l-2.46875 0zm16.26831 0.1875q-1.40625 0 -2.265625 -0.765625q-0.859375 -0.765625 -0.859375 -2.21875q0 -1.5625 1.015625 -2.3125q1.03125 -0.75 3.09375 -0.953125q0.28125 -0.03125 0.609375 -0.0625q0.328125 -0.046875 0.734375 -0.078125q0.40625 -0.03125 0.640625 -0.0625l0 -0.53125q0 -0.90625 -0.421875 -1.3125q-0.40625 -0.421875 -1.265625 -0.421875q-1.21875 0 -3.015625 0.671875q-0.015625 -0.015625 -0.3125 -0.8125q-0.28125 -0.8125 -0.296875 -0.828125q1.765625 -0.75 3.828125 -0.75q2.03125 0 2.9375 0.875q0.921875 0.875 0.921875 2.84375l0 6.53125l-1.765625 0q0 -0.03125 -0.203125 -0.609375q-0.1875 -0.578125 -0.1875 -0.609375q-0.75 0.734375 -1.46875 1.078125q-0.703125 0.328125 -1.71875 0.328125zm0.640625 -1.6875q0.828125 0 1.4375 -0.390625q0.625 -0.40625 0.890625 -0.96875l0 -1.9375q-0.03125 0 -0.484375 0.046875q-0.453125 0.03125 -0.484375 0.03125q-1.453125 0.125 -2.125 0.546875q-0.671875 0.421875 -0.671875 1.34375q0 0.640625 0.375 0.984375q0.375 0.34375 1.0625 0.34375zm7.121826 1.5l0 -10.015625l1.921875 0l0.25 1.265625q1.53125 -1.5 3.40625 -1.5q1.75 0 2.609375 1.0q0.875 1.0 0.875 2.921875l0 6.328125l-2.390625 0l0 -6.046875q-0.015625 -1.203125 -0.40625 -1.796875q-0.375 -0.609375 -1.359375 -0.609375q-0.78125 0 -1.421875 0.40625q-0.640625 0.390625 -0.9375 0.984375q-0.171875 0.71875 -0.171875 2.1875l0 4.875l-2.375 0zm15.142029 0.1875q-1.953125 0 -3.078125 -1.4375q-1.125 -1.4375 -1.125 -3.84375q0 -2.328125 1.109375 -3.734375q1.125 -1.421875 3.078125 -1.421875q2.140625 0 3.015625 1.5q-0.078125 -0.890625 -0.078125 -1.71875l0 -3.234375l2.375 -0.15625l0 13.859375l-2.0625 0l-0.265625 -1.359375q-0.15625 0.234375 -0.296875 0.421875q-0.125 0.171875 -0.375 0.40625q-0.25 0.234375 -0.546875 0.375q-0.296875 0.140625 -0.75 0.234375q-0.453125 0.109375 -1.0 0.109375zm0.5625 -1.8125q2.40625 0 2.4375 -3.265625q0 -1.84375 -0.625 -2.6875q-0.609375 -0.859375 -1.84375 -0.859375q-1.0625 0 -1.71875 0.859375q-0.640625 0.859375 -0.640625 2.546875q0 1.65625 0.640625 2.53125q0.65625 0.875 1.75 0.875zm10.687622 1.765625q-1.03125 0 -1.71875 -0.234375q-0.671875 -0.25 -1.0625 -0.78125q-0.390625 -0.53125 -0.546875 -1.25q-0.15625 -0.734375 -0.15625 -1.8125l0 -9.765625l2.390625 -0.15625l0 9.875q0 1.34375 0.3125 1.828125q0.328125 0.46875 1.25 0.46875q0.453125 0 1.15625 -0.09375l0.0625 1.703125q-0.015625 0 -0.234375 0.046875q-0.203125 0.046875 -0.40625 0.078125q-0.1875 0.03125 -0.5 0.0625q-0.296875 0.03125 -0.546875 0.03125zm7.4469604 0.046875q-2.421875 0 -3.765625 -1.390625q-1.34375 -1.390625 -1.34375 -3.828125q0 -2.390625 1.265625 -3.796875q1.265625 -1.421875 3.453125 -1.421875q2.078125 0 3.21875 1.296875q1.140625 1.28125 1.140625 3.421875q0 0.15625 -0.015625 0.5q0 0.34375 0 0.515625l-6.65625 0q0.03125 1.40625 0.765625 2.171875q0.734375 0.765625 2.03125 0.765625q1.625 0 3.140625 -0.859375l0.34375 1.703125q-1.5 0.921875 -3.578125 0.921875zm-2.65625 -6.203125l4.375 0q0 -1.21875 -0.5625 -1.875q-0.546875 -0.65625 -1.53125 -0.65625q-0.921875 0 -1.5625 0.640625q-0.625 0.625 -0.71875 1.890625zm8.570923 6.015625l0 -10.015625l2.0 0l0.3125 1.53125q0.984375 -1.578125 2.859375 -1.578125q0.390625 0 0.625 0.046875l-0.03125 1.984375q-0.359375 -0.046875 -0.75 -0.046875q-1.328125 0 -1.984375 0.703125q-0.640625 0.703125 -0.640625 1.953125l0 5.421875l-2.390625 0z" fill-rule="nonzero"/><path fill="#000000" fill-opacity="0.0" d="m429.0735 132.28084l32.15747 0l0 -71.02362l32.1575 0" fill-rule="evenodd"/><path stroke="#274e13" stroke-width="2.0" stroke-linejoin="round" stroke-linecap="butt" d="m429.0735 132.28084l32.15747 0l0 -71.02362l20.157501 0" fill-rule="evenodd"/><path fill="#274e13" stroke="#274e13" stroke-width="2.0" stroke-linecap="butt" d="m481.38846 64.560684l9.076202 -3.3034668l-9.076202 -3.303463z" fill-rule="evenodd"/><path fill="#000000" fill-opacity="0.0" d="m429.0735 132.28084l32.15747 0l0 72.97638l32.1575 0" fill-rule="evenodd"/><path stroke="#274e13" stroke-width="2.0" stroke-linejoin="round" stroke-linecap="butt" d="m429.0735 132.28084l32.15747 0l0 72.97638l20.157501 0" fill-rule="evenodd"/><path fill="#274e13" stroke="#274e13" stroke-width="2.0" stroke-linecap="butt" d="m481.38846 208.56068l9.076202 -3.3034668l-9.076202 -3.3034668z" fill-rule="evenodd"/><path fill="#000000" fill-opacity="0.0" d="m485.40683 103.64656l50.17325 0l0 27.181107l-50.17325 0z" fill-rule="evenodd"/><path fill="#274e13" d="m497.28183 135.90532q-0.765625 0 -1.296875 -0.53125q-0.515625 -0.53125 -0.515625 -1.265625q0 -0.734375 0.515625 -1.265625q0.515625 -0.546875 1.296875 -0.546875q0.75 0 1.265625 0.546875q0.515625 0.53125 0.515625 1.265625q0 0.734375 -0.515625 1.265625q-0.515625 0.53125 -1.265625 0.53125zm5.5429688 0q-0.765625 0 -1.296875 -0.53125q-0.515625 -0.53125 -0.515625 -1.265625q0 -0.734375 0.515625 -1.265625q0.515625 -0.546875 1.296875 -0.546875q0.75 0 1.265625 0.546875q0.515625 0.53125 0.515625 1.265625q0 0.734375 -0.515625 1.265625q-0.515625 0.53125 -1.265625 0.53125zm5.5429688 0q-0.765625 0 -1.296875 -0.53125q-0.515625 -0.53125 -0.515625 -1.265625q0 -0.734375 0.515625 -1.265625q0.515625 -0.546875 1.296875 -0.546875q0.75 0 1.265625 0.546875q0.515625 0.53125 0.515625 1.265625q0 0.734375 -0.515625 1.265625q-0.515625 0.53125 -1.265625 0.53125z" fill-rule="nonzero"/><path fill="#000000" fill-opacity="0.0" d="m617.90814 72.04462l100.0 0l0 43.590553" fill-rule="evenodd"/><path stroke="#1c4587" stroke-width="2.0" stroke-linejoin="round" stroke-linecap="butt" d="m629.90814 72.04462l88.0 0l0 43.590553" fill-rule="evenodd"/><path fill="#1c4587" stroke="#1c4587" stroke-width="2.0" stroke-linecap="butt" d="m629.90814 68.74116l-9.076172 3.3034592l9.076172 3.3034668z" fill-rule="evenodd"/><path fill="#000000" fill-opacity="0.0" d="m617.90814 216.04462l100.0 0l0 -48.850388" fill-rule="evenodd"/><path stroke="#1c4587" stroke-width="2.0" stroke-linejoin="round" stroke-linecap="butt" d="m629.90814 216.04462l88.0 0l0 -48.850388" fill-rule="evenodd"/><path fill="#1c4587" stroke="#1c4587" stroke-width="2.0" stroke-linecap="butt" d="m629.90814 212.74115l-9.076172 3.3034668l9.076172 3.3034668z" fill-rule="evenodd"/></g></svg>