<svg version="1.1" viewBox="0.0 0.0 356.5249343832021 352.5511811023622" fill="none" stroke="none" stroke-linecap="square" stroke-miterlimit="10" xmlns:xlink="http://www.w3.org/1999/xlink" xmlns="http://www.w3.org/2000/svg"><clipPath id="p.0"><path d="m0 0l356.52493 0l0 352.55118l-356.52493 0l0 -352.55118z" clip-rule="nonzero"/></clipPath><g clip-path="url(#p.0)"><path fill="#000000" fill-opacity="0.0" d="m0 0l356.52493 0l0 352.55118l-356.52493 0z" fill-rule="evenodd"/><path fill="#000000" fill-opacity="0.0" d="m179.08661 13.816273l0 0c71.78949 0 135.00305 47.282986 155.28171 116.14885c20.278656 68.86586 -7.2225647 142.86127 -67.555695 181.76688c-60.3331 38.90558 -139.0834 33.426117 -193.44711 -13.460114c-54.363693 -46.88623 -71.35228 -123.977234 -41.731804 -189.37111l147.4529 66.78952z" fill-rule="evenodd"/><path fill="#000000" fill-opacity="0.0" d="m179.08661 13.816273l0 0c71.78949 0 135.00305 47.282986 155.28171 116.14885c20.278656 68.86586 -7.2225647 142.86127 -67.555695 181.76688c-60.3331 38.90558 -139.0834 33.426117 -193.44711 -13.460114c-54.363693 -46.88623 -71.35228 -123.977234 -41.731804 -189.37111" fill-rule="evenodd"/><path stroke="#59b32b" stroke-width="16.0" stroke-linejoin="round" stroke-linecap="butt" d="m179.08661 13.816273l0 0c71.78949 0 135.00305 47.282986 155.28171 116.14885c20.278656 68.86586 -7.2225647 142.86127 -67.555695 181.76688c-60.3331 38.90558 -139.0834 33.426117 -193.44711 -13.460114c-54.363693 -46.88623 -71.35228 -123.977234 -41.731804 -189.37111" fill-rule="evenodd"/><path fill="#000000" fill-opacity="0.0" d="m203.6243 287.1113l0 0c-53.28586 11.727966 -107.417656 -15.910828 -129.16621 -65.95009c-21.748558 -50.039246 -5.0265503 -108.47321 39.901108 -139.4318c44.927643 -30.958572 105.485886 -25.776585 144.50061 12.364967c39.01474 38.141556 45.565918 98.567 15.632019 144.18378l-95.39276 -62.597046z" fill-rule="evenodd"/><path fill="#000000" fill-opacity="0.0" d="m203.6243 287.1113l0 0c-53.28586 11.727966 -107.417656 -15.910828 -129.16621 -65.95009c-21.748558 -50.039246 -5.0265503 -108.47321 39.901108 -139.4318c44.927643 -30.958572 105.485886 -25.776585 144.50061 12.364967c39.01474 38.141556 45.565918 98.567 15.632019 144.18378" fill-rule="evenodd"/><path stroke="#7fb32d" stroke-width="16.0" stroke-linejoin="round" stroke-linecap="butt" d="m203.6243 287.1113l0 0c-53.28586 11.727966 -107.417656 -15.910828 -129.16621 -65.95009c-21.748558 -50.039246 -5.0265503 -108.47321 39.901108 -139.4318c44.927643 -30.958572 105.485886 -25.776585 144.50061 12.364967c39.01474 38.141556 45.565918 98.567 15.632019 144.18378" fill-rule="evenodd"/><path fill="#000000" fill-opacity="0.0" d="m166.06197 104.16883l0 0c34.171158 -6.223984 67.96945 12.603516 80.663635 44.93406c12.694168 32.33055 0.7348175 69.12421 -28.542404 87.81242c-29.277237 18.688232 -67.68616 14.045624 -91.66746 -11.080124c-23.981293 -25.125763 -26.829567 -63.70926 -6.7977295 -92.08411l59.365746 41.910522z" fill-rule="evenodd"/><path fill="#000000" fill-opacity="0.0" d="m166.06197 104.16883l0 0c34.171158 -6.223984 67.96945 12.603516 80.663635 44.93406c12.694168 32.33055 0.7348175 69.12421 -28.542404 87.81242c-29.277237 18.688232 -67.68616 14.045624 -91.66746 -11.080124c-23.981293 -25.125763 -26.829567 -63.70926 -6.7977295 -92.08411" fill-rule="evenodd"/><path stroke="#95b32d" stroke-width="16.0" stroke-linejoin="round" stroke-linecap="butt" d="m166.06197 104.16883l0 0c34.171158 -6.223984 67.96945 12.603516 80.663635 44.93406c12.694168 32.33055 0.7348175 69.12421 -28.542404 87.81242c-29.277237 18.688232 -67.68616 14.045624 -91.66746 -11.080124c-23.981293 -25.125763 -26.829567 -63.70926 -6.7977295 -92.08411" fill-rule="evenodd"/><path fill="#b0b32e" d="m142.84776 175.66405l0 0c0 -20.021408 16.23056 -36.25197 36.25197 -36.25197l0 0c9.614624 0 18.83545 3.8193817 25.634018 10.61795c6.7985687 6.7985687 10.61795 16.019394 10.61795 25.634018l0 0c0 20.021408 -16.23056 36.25197 -36.25197 36.25197l0 0c-20.021408 0 -36.25197 -16.23056 -36.25197 -36.25197z" fill-rule="evenodd"/><path stroke="#b0b32e" stroke-width="12.0" stroke-linejoin="round" stroke-linecap="butt" d="m142.84776 175.66405l0 0c0 -20.021408 16.23056 -36.25197 36.25197 -36.25197l0 0c9.614624 0 18.83545 3.8193817 25.634018 10.61795c6.7985687 6.7985687 10.61795 16.019394 10.61795 25.634018l0 0c0 20.021408 -16.23056 36.25197 -36.25197 36.25197l0 0c-20.021408 0 -36.25197 -16.23056 -36.25197 -36.25197z" fill-rule="evenodd"/></g></svg>